<svg width="20" height="20" viewBox="0 0 20 20" fill="none" xmlns="http://www.w3.org/2000/svg">
<path fill-rule="evenodd" clip-rule="evenodd" d="M0.833496 9.99998C0.833496 4.93737 4.93755 0.833313 10.0002 0.833313C15.0628 0.833313 19.1668 4.93737 19.1668 9.99998C19.1668 15.0626 15.0628 19.1666 10.0002 19.1666C4.93755 19.1666 0.833496 15.0626 0.833496 9.99998ZM14.4004 7.73359C14.6445 7.48951 14.6445 7.09378 14.4004 6.8497C14.1564 6.60563 13.7606 6.60563 13.5166 6.8497L8.54183 11.8244L6.48377 9.76637C6.23969 9.52229 5.84396 9.52229 5.59989 9.76637C5.35581 10.0104 5.35581 10.4062 5.59989 10.6503L8.09989 13.1503C8.34397 13.3943 8.73969 13.3943 8.98377 13.1503L14.4004 7.73359Z" fill="#24292F"/>
</svg>
