<svg width="768" height="768" viewBox="0 0 768 768" fill="none" xmlns="http://www.w3.org/2000/svg">
<circle cx="384" cy="384" r="381" stroke="#DAFFF9" stroke-opacity="0.18" stroke-width="6" stroke-linecap="round" stroke-dasharray="25 25"/>
<path d="M384 0C434.428 6.01343e-07 484.361 9.93246 530.95 29.2303C577.539 48.5281 619.871 76.8133 655.529 112.471C691.187 148.129 719.472 190.461 738.77 237.05C758.068 283.639 768 333.572 768 384C768 434.428 758.068 484.361 738.77 530.951C719.472 577.54 691.187 619.871 655.529 655.529C619.871 691.187 577.539 719.472 530.95 738.77C484.361 758.068 434.427 768 384 768V762.248C433.672 762.248 482.858 752.464 528.749 733.455C574.64 714.447 616.338 686.585 651.462 651.462C686.585 616.338 714.447 574.64 733.455 528.749C752.464 482.858 762.248 433.672 762.248 384C762.248 334.328 752.464 285.142 733.455 239.251C714.447 193.36 686.585 151.662 651.462 116.538C616.338 81.4148 574.64 53.5533 528.749 34.5446C482.858 15.5358 433.672 5.75217 384 5.75217V0Z" fill="#61C9B8"/>
</svg>
