<svg width="768" height="768" viewBox="0 0 768 768" fill="none" xmlns="http://www.w3.org/2000/svg">
<circle cx="384" cy="384" r="381" stroke="#DAFFF9" stroke-opacity="0.18" stroke-width="6" stroke-linecap="round" stroke-dasharray="25 25"/>
<path d="M384 0C459.948 9.05671e-07 534.19 22.5212 597.339 64.7157C660.487 106.91 709.706 166.883 738.77 237.05C767.834 307.216 775.438 384.426 760.622 458.915C745.805 533.403 709.232 601.826 655.529 655.529C601.826 709.232 533.403 745.805 458.915 760.622C384.426 775.438 307.216 767.834 237.05 738.77C166.883 709.706 106.91 660.487 64.7157 597.339C22.5212 534.19 -1.81134e-06 459.948 0 384H5.75217C5.75216 458.81 27.936 531.941 69.4984 594.143C111.061 656.346 170.135 704.827 239.251 733.455C308.367 762.084 384.42 769.575 457.792 754.98C531.165 740.385 598.563 704.361 651.462 651.462C704.361 598.563 740.385 531.165 754.98 457.793C769.575 384.42 762.084 308.367 733.455 239.251C704.827 170.135 656.346 111.061 594.143 69.4984C531.941 27.936 458.81 5.75217 384 5.75217V0Z" fill="#61C9B8"/>
</svg>
